@startuml
'skinparam monochrome true
skinparam packageStyle rectangle
skinparam shadowing false
skinparam linetype polyline
'skinparam linetype orto

skinparam classAttributeIconSize 0

'left to right direction

class RegisterGreenSpaceUI {

}

class RegisterGreenSpaceController {
    + getEmployeeRepository() : EmployeeRepository
    + getAuthRepository() : AuthenticationRepository
    + initialize(): void
    + existsWithAddress(address : String) : boolean
    + existsWithName(name : String) : boolean
    + currentUserLogInValidation() : boolean
    + matchEmployeeByRole() : Employee
    + registerGreenSpace(name: String, address: String, area: double, typology : GreenSpaceTypology, greenSpaceManager: String) : Optional<GreenSpace>
    + getGreenSpaceTypologies() : GreenSpaceTypology[]
    }

class Repositories {
     - Repositories()
     + getInstance() : Repositories
     + getEmployeeRepository() : EmployeeRepository
     + getAuthRepository() : AuthenticationRepository

}

class Employee {
    -name : String
    -birthdate : Date
    -email : String
    -phoneNumber : int
    -admission date : Date
    -taxpayerNumber : String
    -address : String
    -docNumber : String
    -jobTitle : String
    +registerGreenSpace(name: String, address: String, area: double, typology : GreenSpaceTypology, greenSpaceManager: String, userValidation : boolean) : Optional<GreenSpace>
    +addGreenSpace(greenSpace) : Optional<GreenSpace>
    +validateGreenSpace(greenSpace) : boolean

}

class EmployeeRepository {
    +getEmployee() : employee
}

class AuthenticationRepository {
    +getCurrentUserSession() : UserSession
}

class GreenSpace {
        -name : String
        -address : String
        -area : double
        -typology : GreenSpaceTypology
        - greenSpaceManager : String
}

enum GreenSpaceTypology {
    GARDEN
MEDIUM
LARGE
}



RegisterGreenSpaceController ..> Repositories: repositories
RegisterGreenSpaceController ..> Employee
RegisterGreenSpaceUI .> RegisterGreenSpaceController
Repositories -> Repositories : instance
EmployeeRepository "1" --> "*" Employee
AuthenticationRepository "1" --> "*" Employee
Employee "1" --> "*" GreenSpace : registerGreenSpace
Repositories "1" --> "1" EmployeeRepository
Repositories "1" --> "1" AuthenticationRepository
GreenSpace "1" .> "1" GreenSpaceTypology




@enduml