@startuml
'skinparam monochrome true
skinparam packageStyle rectangle
skinparam shadowing false
skinparam linetype polyline
'skinparam linetype orto

skinparam classAttributeIconSize 0

'left to right direction

class ListGreenSpacesManagedByMeUI{
}

class ListGreenSpacesManagedByMeController{
+getGreenSpaceRepository()
+getEmployeeRepository()
+getGreenSpacesManagedByMe(): List<GreenSpace>

}

class Employee {
+getGreenSpacesManagedByMe(): List<GreenSpace>
}

class GreenSpaces{
-List<GreenSpace> greenSpaces
+getGreenSpacesManagedByEmployee()
}

class GreenSpace{
-name : String
-address : String
-area : double
-typology : String
- greenSpaceManager : String
}


class EmployeeRepository {
+getEmployee(): employee
}




class Repositories {
    - Repositories()
    + getInstance() : Repositories
    + getEmployeeRepository()

}





Repositories --> Repositories : instance


ListGreenSpacesManagedByMeUI ..> ListGreenSpacesManagedByMeController

ListGreenSpacesManagedByMeController ..> Repositories : repositories



Repositories "1"--> "1" EmployeeRepository



EmployeeRepository "1"--> "*" Employee


Employee "1" --> "1"GreenSpaces: list GreenSpaces
GreenSpaces "1" --> "*"GreenSpace


ListGreenSpacesManagedByMeController .> Employee


@enduml