@startuml
skinparam monochrome true
skinparam packageStyle rectangle
skinparam shadowing false
skinparam classAttributeIconSize 0
'skinparam linetype ortho
'left to right direction
hide circle
hide methods

title User story 006 Domain Model





class Employee {
    name
    birthdate
    email/phone
    admisson date
    VAT number
    address
    role
}

class VehicleEquipmentFleetManager{
}


class Vehicle{
    registrationPlate
    brand
    model
    type
    tare
    grossWeight
    currentKm
    registerDate
    acquisitionDate
    checkupKm
}

Employee "1" -- "1..*" VehicleEquipmentFleetManager : is >
VehicleEquipmentFleetManager "1" -- "1..*" Vehicle : manages >

@enduml