@startuml
skinparam monochrome true
skinparam packageStyle rectangle
skinparam shadowing false
skinparam classAttributeIconSize 0
'skinparam linetype ortho
'left to right direction
hide circle
hide methods

title User story 006 Domain Model



class Organization {
    name
    vatNumber
    website
    phoneNumber
    email
}

class Employee {
    name
    birthdate
    email/phone
    admisson date
    VAT number
    address
    role
}

class VehicleEquipmentFleetManager{
}

class Collaborator{
}

class Vehicle{
    brand
    model
    registrationPlate
}

Organization "1" -- "1..*" Employee : has >
Employee "1" -- "1..*" VehicleEquipmentFleetManager : is >
Employee "1" -- "1..*" Collaborator : is >
VehicleEquipmentFleetManager "1" -- "1..*" Vehicle : manages >

@enduml