@startuml
'skinparam monochrome true
skinparam packageStyle rectangle
skinparam shadowing false
skinparam linetype polyline
'skinparam linetype orto

skinparam classAttributeIconSize 0

'left to right direction

class AssignVehicleToAgendaEntryUI{
}

class AssignVehicleToAgendaEntryController{
+getEmployeeRepository()
+getTaskRepository()
+getVehicleRepository()
+getAvailableTasks(): List<Task>
+getAvailableVehicles(Task taskSelected): List<Vehicle>
+getTaskAssignedVehicles(Task task): List<Vehicle>
+assignVehicleToTask(Vehicle vehicle, Task task): void
}

class Employee {
    -name : String
    -birthdate : Date
    -email : String
    -phoneNumber : int
    -admission date : Date
    -taxpayerNumber : String
    -address : String
    -docNumber : String
    -jobTitle : String
+assignVehicleToTask(Vehicle availableVehicle, Task selectedTask):void
}

class Task{
-title: String
    -description: String
    -date: Date
    -taskStartPeriod: TaskPeriod
    -taskExpectedDuration: int
    -type: String
    -greenSpace: GreenSpace
    -urgency: TaskUrgency
    -status: TaskStatus
    -assignedTeam: Team
    -assignedVehicles: List<Vehicle>
    -startDate: Date
    -taskPosition: TaskPosition
}

class TaskRepository {
+getAllAgendaTasksExceptDoneCanceled(): List<Task>
+getVehicleAvaiability(Task selectedTask, List<Vehicle> vehicles): List<Vehicle>
}

class EmployeeRepository {
+getEmployee(): employee
}

class VehicleRepository{
+getVehicles():List<Vehicle>

}

class Repositories {
    - Repositories()
    + getInstance() : Repositories
    + getTaskRepository()
    + getEmployeeRepository()
    + getVehicleRepository()

}





Repositories --> Repositories : instance


AssignVehicleToAgendaEntryUI ..> AssignVehicleToAgendaEntryController

AssignVehicleToAgendaEntryController ..> Repositories : repositories


Repositories "1"--> "1" TaskRepository
Repositories "1"--> "1" EmployeeRepository
Repositories "1"--> "1" VehicleRepository

TaskRepository "1"--> "*" Employee
EmployeeRepository "1"--> "*" Employee
VehicleRepository "1"--> "*" Employee

Employee "1" --> "*"Task


AssignVehicleToAgendaEntryController ..> Employee


















@enduml